<mxfile>
    <diagram id="yYteGkmMoOO_UnphUt6V" name="Page-1">
        <mxGraphModel dx="2018" dy="1102" grid="1" gridSize="10" guides="1" tooltips="1" connect="1" arrows="1" fold="1" page="1" pageScale="1" pageWidth="850" pageHeight="1100" math="0" shadow="0">
            <root>
                <mxCell id="0"/>
                <mxCell id="1" parent="0"/>
                <mxCell id="9" value="" style="edgeStyle=orthogonalEdgeStyle;rounded=0;orthogonalLoop=1;jettySize=auto;html=1;fontSize=15;" edge="1" parent="1" source="2" target="3">
                    <mxGeometry relative="1" as="geometry"/>
                </mxCell>
                <mxCell id="2" value="加载" style="rounded=1;whiteSpace=wrap;html=1;fontSize=15;" vertex="1" parent="1">
                    <mxGeometry x="40" y="300" width="60" height="30" as="geometry"/>
                </mxCell>
                <mxCell id="10" value="" style="edgeStyle=orthogonalEdgeStyle;rounded=0;orthogonalLoop=1;jettySize=auto;html=1;fontSize=15;" edge="1" parent="1" source="3" target="4">
                    <mxGeometry relative="1" as="geometry"/>
                </mxCell>
                <mxCell id="3" value="验证" style="rounded=1;whiteSpace=wrap;html=1;fontSize=15;" vertex="1" parent="1">
                    <mxGeometry x="140" y="300" width="60" height="30" as="geometry"/>
                </mxCell>
                <mxCell id="11" value="" style="edgeStyle=orthogonalEdgeStyle;rounded=0;orthogonalLoop=1;jettySize=auto;html=1;fontSize=15;" edge="1" parent="1" source="4" target="5">
                    <mxGeometry relative="1" as="geometry"/>
                </mxCell>
                <mxCell id="4" value="准备" style="rounded=1;whiteSpace=wrap;html=1;fontSize=15;" vertex="1" parent="1">
                    <mxGeometry x="240" y="300" width="60" height="30" as="geometry"/>
                </mxCell>
                <mxCell id="12" value="" style="edgeStyle=orthogonalEdgeStyle;rounded=0;orthogonalLoop=1;jettySize=auto;html=1;fontSize=15;" edge="1" parent="1" source="5" target="6">
                    <mxGeometry relative="1" as="geometry"/>
                </mxCell>
                <mxCell id="5" value="解析" style="rounded=1;whiteSpace=wrap;html=1;fontSize=15;" vertex="1" parent="1">
                    <mxGeometry x="340" y="300" width="60" height="30" as="geometry"/>
                </mxCell>
                <mxCell id="13" value="" style="edgeStyle=orthogonalEdgeStyle;rounded=0;orthogonalLoop=1;jettySize=auto;html=1;fontSize=15;" edge="1" parent="1" source="6" target="7">
                    <mxGeometry relative="1" as="geometry"/>
                </mxCell>
                <mxCell id="6" value="初始化" style="rounded=1;whiteSpace=wrap;html=1;fontSize=15;" vertex="1" parent="1">
                    <mxGeometry x="440" y="300" width="60" height="30" as="geometry"/>
                </mxCell>
                <mxCell id="15" value="" style="edgeStyle=orthogonalEdgeStyle;rounded=0;orthogonalLoop=1;jettySize=auto;html=1;fontSize=15;" edge="1" parent="1" source="7" target="8">
                    <mxGeometry relative="1" as="geometry"/>
                </mxCell>
                <mxCell id="7" value="使用" style="rounded=1;whiteSpace=wrap;html=1;fontSize=15;" vertex="1" parent="1">
                    <mxGeometry x="540" y="300" width="60" height="30" as="geometry"/>
                </mxCell>
                <mxCell id="8" value="卸载" style="rounded=1;whiteSpace=wrap;html=1;fontSize=15;" vertex="1" parent="1">
                    <mxGeometry x="640" y="300" width="60" height="30" as="geometry"/>
                </mxCell>
                <mxCell id="16" value="" style="shape=curlyBracket;whiteSpace=wrap;html=1;rounded=1;fontSize=15;direction=south;" vertex="1" parent="1">
                    <mxGeometry x="70" y="270" width="400" height="30" as="geometry"/>
                </mxCell>
                <mxCell id="19" value="加载" style="text;html=1;align=center;verticalAlign=middle;resizable=0;points=[];autosize=1;strokeColor=none;fontSize=15;" vertex="1" parent="1">
                    <mxGeometry x="245" y="240" width="50" height="20" as="geometry"/>
                </mxCell>
                <mxCell id="20" value="" style="shape=curlyBracket;whiteSpace=wrap;html=1;rounded=1;fontSize=15;direction=north;" vertex="1" parent="1">
                    <mxGeometry x="170" y="330" width="200" height="30" as="geometry"/>
                </mxCell>
                <mxCell id="21" value="连接" style="text;html=1;align=center;verticalAlign=middle;resizable=0;points=[];autosize=1;strokeColor=none;fontSize=15;" vertex="1" parent="1">
                    <mxGeometry x="245" y="370" width="50" height="20" as="geometry"/>
                </mxCell>
                <mxCell id="22" value="" style="shape=crossbar;whiteSpace=wrap;html=1;rounded=1;fontSize=15;" vertex="1" parent="1">
                    <mxGeometry x="40" y="390" width="660" height="20" as="geometry"/>
                </mxCell>
                <mxCell id="23" value="一个类的完整生命周期" style="text;html=1;align=center;verticalAlign=middle;resizable=0;points=[];autosize=1;strokeColor=none;fontSize=15;" vertex="1" parent="1">
                    <mxGeometry x="275" y="420" width="170" height="20" as="geometry"/>
                </mxCell>
            </root>
        </mxGraphModel>
    </diagram>
</mxfile>